<?xml version="1.0" encoding="UTF-8"?>
<svg version="1.1" xmlns="http://www.w3.org/2000/svg" width="401" height="85">
<path d="M0 0 C12.98544699 10.88981289 12.98544699 10.88981289 15 18 C14.72445223 20.3948343 14.22050871 22.57487029 13.54296875 24.88671875 C12.83410059 27.28204159 12.83410059 27.28204159 13 31 C14.58200163 33.21480228 16.18140022 35.24530978 17.9375 37.3125 C28.31336983 50.03597344 38.5886679 65.09799008 39 82 C22.57512158 87.24596877 22.57512158 87.24596877 14.5625 83.3125 C12.01973424 81.01780895 10.67733736 78.94878842 9 76 C8.38705078 76.09087891 7.77410156 76.18175781 7.14257812 76.27539062 C-12.05358284 79.07512988 -31.19292978 81.26902341 -50 75 C-47.47690531 58.852194 -47.47690531 58.852194 -42.9375 53.625 C-39.93184296 51.96229611 -38.41441906 51.80611468 -35.08203125 51.48828125 C-31.25164523 50.76380149 -31.25164523 50.76380149 -28.53295898 48.14355469 C-27.40952823 45.65029695 -26.5529299 43.1764986 -25.75 40.5625 C-25.1036719 38.73010143 -24.45265671 36.8993491 -23.796875 35.0703125 C-23.49201172 34.19020508 -23.18714844 33.31009766 -22.87304688 32.40332031 C-18.32578323 19.88562922 -9.66441579 8.97042849 0 0 Z M-5.1875 43 C-9.22174165 47.06646402 -12.7344622 51.30018678 -16 56 C-13.66840696 56.65272461 -11.33502204 57.29725202 -9 57.9375 C-8.35160156 58.11990234 -7.70320313 58.30230469 -7.03515625 58.49023438 C-2.36567891 59.76162672 2.18658809 60.48964941 7 61 C6.2113773 58.26992066 5.41921814 55.54095166 4.625 52.8125 C4.40328125 52.04357422 4.1815625 51.27464844 3.953125 50.48242188 C2.8101093 46.56591221 1.61097806 42.75643949 0 39 C-2.06405046 39 -3.84594312 41.66967894 -5.1875 43 Z " fill="#FFFFFF" transform="translate(50,0)"/>
<path d="M0 0 C17.44444444 0 17.44444444 0 23 4.6875 C25.12060081 9.59138936 25.60983954 13.38392521 23.75 18.3125 C21.38421093 21.94567606 20.14350791 23.6188307 16 25 C13.25917841 25.07056698 10.55153023 25.09336154 7.8125 25.0625 C5.234375 25.041875 2.65625 25.02125 0 25 C0 16.75 0 8.5 0 0 Z M6 6 C6 10.62 6 15.24 6 20 C11.57452814 20.51078489 11.57452814 20.51078489 16.5 18.375 C18.45562482 15.27859404 18.60024477 13.60146865 18 10 C16.62716577 7.45997987 16.62716577 7.45997987 14 6 C11.24150058 5.67361266 8.79515088 5.81365661 6 6 Z " fill="#FFFFFF" transform="translate(198,24)"/>
<path d="M0 0 C5.75078482 0 8.5604138 0.896706 13.375 3.5 C14.01566406 3.83386719 14.65632812 4.16773438 15.31640625 4.51171875 C16.88333671 5.33026451 18.44250241 6.16364513 20 7 C20 4.69 20 2.38 20 0 C21.98 0 23.96 0 26 0 C26 8.25 26 16.5 26 25 C24.02 25 22.04 25 20 25 C20 21.37 20 17.74 20 14 C18.35 13.34 16.7 12.68 15 12 C12.30825114 10.7128461 9.66002334 9.35255424 7 8 C6.67 13.61 6.34 19.22 6 25 C4.02 25 2.04 25 0 25 C0 16.75 0 8.5 0 0 Z " fill="#FFFFFF" transform="translate(139,24)"/>
<path d="M0 0 C1.98 0 3.96 0 6 0 C6 2.31 6 4.62 6 7 C10.62 7 15.24 7 20 7 C20 4.69 20 2.38 20 0 C21.98 0 23.96 0 26 0 C26 8.25 26 16.5 26 25 C24.02 25 22.04 25 20 25 C20 20.71 20 16.42 20 12 C15.38 12 10.76 12 6 12 C6 16.29 6 20.58 6 25 C4.02 25 2.04 25 0 25 C0 16.75 0 8.5 0 0 Z " fill="#FFFFFF" transform="translate(287,24)"/>
<path d="M0 0 C6.08671054 0 7.81427315 0.60815609 12.875 3.5 C13.46796875 3.83386719 14.0609375 4.16773438 14.671875 4.51171875 C16.12104717 5.32979982 17.56146981 6.16334743 19 7 C19 4.69 19 2.38 19 0 C20.98 0 22.96 0 25 0 C25 8.25 25 16.5 25 25 C23.02 25 21.04 25 19 25 C19.06703125 24.27554688 19.1340625 23.55109375 19.203125 22.8046875 C19.2558311 19.51055604 19.11536804 17.11533832 18 14 C14.15631312 11.09941461 10.55097708 9.77248581 6 8 C5.67 13.61 5.34 19.22 5 25 C3.35 25 1.7 25 0 25 C0 16.75 0 8.5 0 0 Z " fill="#FFFFFF" transform="translate(346,24)"/>
<path d="M0 0 C3.09887695 -0.1159668 3.09887695 -0.1159668 6 0 C7.84307955 3.59926342 9.67276517 7.20517031 11.5 10.8125 C12.02464844 11.83666016 12.54929688 12.86082031 13.08984375 13.91601562 C13.58613281 14.89892578 14.08242187 15.88183594 14.59375 16.89453125 C15.05458984 17.80050049 15.51542969 18.70646973 15.99023438 19.63989258 C17 22 17 22 17 25 C14.125 25.1875 14.125 25.1875 11 25 C10.34 24.01 9.68 23.02 9 22 C5.88389446 21.41407366 5.88389446 21.41407366 2.375 21.3125 C1.18648437 21.24675781 -0.00203125 21.18101563 -1.2265625 21.11328125 C-2.14179687 21.07589844 -3.05703125 21.03851563 -4 21 C-4.33 22.32 -4.66 23.64 -5 25 C-7.31 25 -9.62 25 -12 25 C-10.56771766 21.76849438 -9.12825427 18.54023631 -7.6875 15.3125 C-7.28337891 14.40048828 -6.87925781 13.48847656 -6.46289062 12.54882812 C-5.33221557 10.02089609 -4.1713539 7.50927893 -3 5 C-2.53207031 3.96230469 -2.06414062 2.92460937 -1.58203125 1.85546875 C-0.79892578 0.93701172 -0.79892578 0.93701172 0 0 Z M2 8 C0.515 11.96 0.515 11.96 -1 16 C1.64 16 4.28 16 7 16 C5.68 13.36 4.36 10.72 3 8 C2.67 8 2.34 8 2 8 Z " fill="#FFFFFF" transform="translate(120,24)"/>
<path d="M0 0 C1.98 0 3.96 0 6 0 C14.44646925 16.70842825 14.44646925 16.70842825 18 25 C15.69 25 13.38 25 11 25 C10.67 23.68 10.34 22.36 10 21 C7.87422093 21.0868276 5.74930419 21.1949951 3.625 21.3125 C2.44164062 21.37050781 1.25828125 21.42851563 0.0390625 21.48828125 C-0.96382813 21.65714844 -1.96671875 21.82601562 -3 22 C-3.66 22.99 -4.32 23.98 -5 25 C-8.125 25.1875 -8.125 25.1875 -11 25 C-8.4621689 16.11759114 -4.22230349 8.17381793 0 0 Z M3 8 C1.68 10.64 0.36 13.28 -1 16 C1.64 16 4.28 16 7 16 C6.01 13.36 5.02 10.72 4 8 C3.67 8 3.34 8 3 8 Z " fill="#FFFFFF" transform="translate(326,24)"/>
<path d="M0 0 C1.98 0 3.96 0 6 0 C14.44646925 16.70842825 14.44646925 16.70842825 18 25 C15.69 25 13.38 25 11 25 C10.67 23.68 10.34 22.36 10 21 C7.87422093 21.0868276 5.74930419 21.1949951 3.625 21.3125 C2.44164062 21.37050781 1.25828125 21.42851563 0.0390625 21.48828125 C-0.96382812 21.65714844 -1.96671875 21.82601562 -3 22 C-3.66 22.99 -4.32 23.98 -5 25 C-8.125 25.1875 -8.125 25.1875 -11 25 C-8.4621689 16.11759114 -4.22230349 8.17381793 0 0 Z M3 8 C1.68 10.64 0.36 13.28 -1 16 C1.64 16 4.28 16 7 16 C6.01 13.36 5.02 10.72 4 8 C3.67 8 3.34 8 3 8 Z " fill="#FFFFFF" transform="translate(232,24)"/>
<path d="M0 0 C1.98 0 3.96 0 6 0 C10.48445738 8.16345397 14.85423558 16.20427711 18 25 C15.69 25 13.38 25 11 25 C10.67 23.68 10.34 22.36 10 21 C7.87422093 21.0868276 5.74930419 21.1949951 3.625 21.3125 C2.44164062 21.37050781 1.25828125 21.42851563 0.0390625 21.48828125 C-0.96382812 21.65714844 -1.96671875 21.82601562 -3 22 C-3.66 22.99 -4.32 23.98 -5 25 C-8.125 25.1875 -8.125 25.1875 -11 25 C-9.33913088 19.43335076 -6.88928264 14.34213647 -4.375 9.125 C-3.95476562 8.24585938 -3.53453125 7.36671875 -3.1015625 6.4609375 C-2.0708308 4.30577122 -1.03690574 2.15220078 0 0 Z M3 8 C0.54420303 11.68564084 0.54420303 11.68564084 0 16 C2.31 16 4.62 16 7 16 C5.73025028 11.58477891 5.73025028 11.58477891 3 8 Z " fill="#FFFFFF" transform="translate(178,24)"/>
<path d="M0 0 C1.65 0 3.3 0 5 0 C5 2.31 5 4.62 5 7 C9.62 7 14.24 7 19 7 C19 4.69 19 2.38 19 0 C20.98 0 22.96 0 25 0 C25 8.25 25 16.5 25 25 C23.02 25 21.04 25 19 25 C19 20.71 19 16.42 19 12 C14.38 12 9.76 12 5 12 C5 16.29 5 20.58 5 25 C3.35 25 1.7 25 0 25 C0 16.75 0 8.5 0 0 Z " fill="#FFFFFF" transform="translate(376,24)"/>
<path d="M0 0 C0.99 0 1.98 0 3 0 C3 4.29 3 8.58 3 13 C5.64 12.67 8.28 12.34 11 12 C11.12375 10.865625 11.2475 9.73125 11.375 8.5625 C11.58125 7.386875 11.7875 6.21125 12 5 C14.95664519 3.5216774 17.74229737 3.93967217 21 4 C21.33 4.66 21.66 5.32 22 6 C22.33 5.34 22.66 4.68 23 4 C24.45792884 3.94600264 25.91642712 3.90720823 27.375 3.875 C28.18710938 3.85179687 28.99921875 3.82859375 29.8359375 3.8046875 C32 4 32 4 34 6 C34.1953125 8.3828125 34.1953125 8.3828125 34.125 11.125 C34.10695312 12.03507812 34.08890625 12.94515625 34.0703125 13.8828125 C34.04710937 14.58148438 34.02390625 15.28015625 34 16 C33.01 16 32.02 16 31 16 C30.67 13.36 30.34 10.72 30 8 C29.01 8 28.02 8 27 8 C26.67 10.64 26.34 13.28 26 16 C17.42 16 8.84 16 0 16 C0 10.72 0 5.44 0 0 Z M15 7 C15 7.66 15 8.32 15 9 C16.32 8.67 17.64 8.34 19 8 C17.68 7.67 16.36 7.34 15 7 Z M15 11 C15 11.99 15 12.98 15 14 C16.32 13.34 17.64 12.68 19 12 C17.68 11.67 16.36 11.34 15 11 Z " fill="#FFFFFF" transform="translate(160,57)"/>
<path d="M0 0 C7.92 0 15.84 0 24 0 C24 1.98 24 3.96 24 6 C21.03 6 18.06 6 15 6 C15 12.27 15 18.54 15 25 C13.02 25 11.04 25 9 25 C9 18.73 9 12.46 9 6 C6.03 6 3.06 6 0 6 C0 4.02 0 2.04 0 0 Z " fill="#FFFFFF" transform="translate(260,24)"/>
<path d="M0 0 C7.92 0 15.84 0 24 0 C24 1.98 24 3.96 24 6 C21.03 6 18.06 6 15 6 C15 12.27 15 18.54 15 25 C13.02 25 11.04 25 9 25 C9 18.73 9 12.46 9 6 C6.03 6 3.06 6 0 6 C0 4.02 0 2.04 0 0 Z " fill="#FFFFFF" transform="translate(88,24)"/>
<path d="M0 0 C2.03667615 1.54506466 2.86073078 2.72146156 4 5 C4.33 3.35 4.66 1.7 5 0 C8.375 -0.125 8.375 -0.125 12 0 C14.49505962 2.49505962 14.35948376 3.67328888 14.625 7.125 C14.69976562 8.03507812 14.77453125 8.94515625 14.8515625 9.8828125 C14.90054688 10.58148438 14.94953125 11.28015625 15 12 C10.33333333 12 5.66666667 12 1 12 C-0.7325 12.0928125 -0.7325 12.0928125 -2.5 12.1875 C-6 12 -6 12 -7.9375 10.875 C-9.50422245 8.11019567 -9.38976435 6.11811483 -9 3 C-6.79086995 -0.68188342 -4.01844539 -0.50230567 0 0 Z M-5 3 C-5.33 4.65 -5.66 6.3 -6 8 C-4.02 8.99 -4.02 8.99 -2 10 C-1.34 9.34 -0.68 8.68 0 8 C-0.32041397 5.39719432 -0.32041397 5.39719432 -1 3 C-2.32 3 -3.64 3 -5 3 Z M7 3 C7 3.66 7 4.32 7 5 C8.32 4.67 9.64 4.34 11 4 C9.68 3.67 8.36 3.34 7 3 Z M7 7 C7 7.99 7 8.98 7 10 C8.32 9.34 9.64 8.68 11 8 C9.68 7.67 8.36 7.34 7 7 Z " fill="#FFFFFF" transform="translate(216,61)"/>
<path d="M0 0 C1.65 0 3.3 0 5 0 C5 8.25 5 16.5 5 25 C3.35 25 1.7 25 0 25 C0 16.75 0 8.5 0 0 Z " fill="#FFFFFF" transform="translate(252,24)"/>
<path d="M0 0 C1.423125 -0.061875 2.84625 -0.12375 4.3125 -0.1875 C5.51326172 -0.23970703 5.51326172 -0.23970703 6.73828125 -0.29296875 C9 0 9 0 10.7734375 1.32421875 C12.64824591 3.88566081 12.32099971 5.91840278 12 9 C11.01 10.485 11.01 10.485 10 12 C6.375 12.1875 6.375 12.1875 3 12 C3 13.32 3 14.64 3 16 C2.01 16 1.02 16 0 16 C0 10.72 0 5.44 0 0 Z M4 3 C3.67 4.65 3.34 6.3 3 8 C4.98 8.99 4.98 8.99 7 10 C7.66 9.34 8.32 8.68 9 8 C8.67958603 5.39719432 8.67958603 5.39719432 8 3 C6.68 3 5.36 3 4 3 Z " fill="#FFFFFF" transform="translate(237,61)"/>
<path d="M0 0 C0.99 0 1.98 0 3 0 C3.66 1.98 4.32 3.96 5 6 C5.99 4.02 6.98 2.04 8 0 C9.98 0 11.96 0 14 0 C14 3.96 14 7.92 14 12 C13.01 12 12.02 12 11 12 C10.67 9.36 10.34 6.72 10 4 C9.01 6.64 8.02 9.28 7 12 C5.68 12 4.36 12 3 12 C2.49166409 10.75336669 1.99368855 9.50250613 1.5 8.25 C1.2215625 7.55390625 0.943125 6.8578125 0.65625 6.140625 C0 4 0 4 0 0 Z " fill="#FFFFFF" transform="translate(291,61)"/>
<path d="M0 0 C0.99 0 1.98 0 3 0 C3 1.32 3 2.64 3 4 C3.969375 3.979375 4.93875 3.95875 5.9375 3.9375 C9 4 9 4 10 5 C10.07226502 6.85287502 10.0838122 8.70833878 10.0625 10.5625 C10.05347656 11.57441406 10.04445313 12.58632812 10.03515625 13.62890625 C10.02355469 14.41136719 10.01195312 15.19382812 10 16 C9.01 16 8.02 16 7 16 C7 13.03 7 10.06 7 7 C6.01 7.33 5.02 7.66 4 8 C3.67 10.64 3.34 13.28 3 16 C2.01 16 1.02 16 0 16 C0 10.72 0 5.44 0 0 Z " fill="#FFFFFF" transform="translate(319,57)"/>
<path d="M0 0 C0.99 0 1.98 0 3 0 C3 1.32 3 2.64 3 4 C3.969375 3.979375 4.93875 3.95875 5.9375 3.9375 C9 4 9 4 10 5 C10.07226502 6.85287502 10.0838122 8.70833878 10.0625 10.5625 C10.05347656 11.57441406 10.04445313 12.58632812 10.03515625 13.62890625 C10.02355469 14.41136719 10.01195312 15.19382812 10 16 C9.01 16 8.02 16 7 16 C7 13.03 7 10.06 7 7 C6.01 7.33 5.02 7.66 4 8 C3.67 10.64 3.34 13.28 3 16 C2.01 16 1.02 16 0 16 C0 10.72 0 5.44 0 0 Z " fill="#FFFFFF" transform="translate(250,57)"/>
<path d="M0 0 C1.875 1.125 1.875 1.125 3 3 C3.42478586 7.07794425 3.31282587 8.53076119 1 12 C-0.875 12.3984375 -0.875 12.3984375 -3 12.375 C-3.70125 12.38273437 -4.4025 12.39046875 -5.125 12.3984375 C-7 12 -7 12 -9 9 C-9.32502803 5.87973093 -9.51151479 3.85252465 -7.875 1.125 C-5.11909116 -0.52854531 -3.14924548 -0.39365568 0 0 Z M-5 3 C-5.33 4.65 -5.66 6.3 -6 8 C-4.02 8.99 -4.02 8.99 -2 10 C-1.34 9.34 -0.68 8.68 0 8 C-0.32041397 5.39719432 -0.32041397 5.39719432 -1 3 C-2.32 3 -3.64 3 -5 3 Z " fill="#FFFFFF" transform="translate(270,61)"/>
<path d="M0 0 C6.93359375 -0.09765625 6.93359375 -0.09765625 9 0 C10 1 10 1 10.09765625 3.50390625 C10.08605469 4.51324219 10.07445312 5.52257812 10.0625 6.5625 C10.05347656 7.57441406 10.04445313 8.58632812 10.03515625 9.62890625 C10.02355469 10.41136719 10.01195312 11.19382812 10 12 C9.01 12 8.02 12 7 12 C7 9.03 7 6.06 7 3 C6.01 3.33 5.02 3.66 4 4 C3.67 6.64 3.34 9.28 3 12 C2.01 12 1.02 12 0 12 C0 8.04 0 4.08 0 0 Z " fill="#FFFFFF" transform="translate(307,61)"/>
<path d="M0 0 C6.93359375 -0.09765625 6.93359375 -0.09765625 9 0 C10 1 10 1 10.09765625 3.50390625 C10.08605469 4.51324219 10.07445312 5.52257812 10.0625 6.5625 C10.05347656 7.57441406 10.04445313 8.58632812 10.03515625 9.62890625 C10.02355469 10.41136719 10.01195312 11.19382812 10 12 C9.01 12 8.02 12 7 12 C7 9.03 7 6.06 7 3 C5.68 3 4.36 3 3 3 C3 5.97 3 8.94 3 12 C2.01 12 1.02 12 0 12 C0 8.04 0 4.08 0 0 Z " fill="#FFFFFF" transform="translate(274,61)"/>
<path d="M0 0 C0.99 0 1.98 0 3 0 C3 0.99 3 1.98 3 3 C3.66 3 4.32 3 5 3 C5 3.99 5 4.98 5 6 C4.34 6 3.68 6 3 6 C3 8.31 3 10.62 3 13 C3.66 13 4.32 13 5 13 C5 13.66 5 14.32 5 15 C3.35 15 1.7 15 0 15 C0 12.03 0 9.06 0 6 C-0.66 6 -1.32 6 -2 6 C-2 5.01 -2 4.02 -2 3 C-1.34 3 -0.68 3 0 3 C0 2.01 0 1.02 0 0 Z " fill="#FFFFFF" transform="translate(202,58)"/>
<path d="M0 0 C1.32 0 2.64 0 4 0 C5.125 4.75 5.125 4.75 4 7 C1.36 7 -1.28 7 -4 7 C-2.25 3.125 -2.25 3.125 0 2 C0 1.34 0 0.68 0 0 Z " fill="#FFFFFF" transform="translate(267,53)"/>
<path d="M0 0 C1.32 0 2.64 0 4 0 C4.33 0.99 4.66 1.98 5 3 C3.02 3.99 3.02 3.99 1 5 C0.67 3.35 0.34 1.7 0 0 Z " fill="#FFFFFF" transform="translate(211,55)"/>
<path d="M0 0 C0.99 0 1.98 0 3 0 C3 0.99 3 1.98 3 3 C2.01 3 1.02 3 0 3 C0 2.01 0 1.02 0 0 Z " fill="#FFFFFF" transform="translate(302,57)"/>
</svg>
