<?xml version="1.0" standalone="no"?>
<!DOCTYPE svg PUBLIC "-//W3C//DTD SVG 20010904//EN"
 "http://www.w3.org/TR/2001/REC-SVG-20010904/DTD/svg10.dtd">
<svg version="1.0" xmlns="http://www.w3.org/2000/svg"
 width="10833.000000pt" height="7018.000000pt" viewBox="0 0 10833.000000 7018.000000"
 preserveAspectRatio="xMidYMid meet">

<g transform="translate(0.000000,7018.000000) scale(0.100000,-0.100000)"
fill="#000000" stroke="none">
<path d="M51333 63568 c-1114 -1496 -2086 -2954 -3095 -4643 -2775 -4645
-5340 -10360 -7698 -17155 -86 -250 -165 -479 -174 -507 -10 -29 -22 -55 -26
-58 -5 -3 -78 14 -162 39 -804 237 -1669 338 -2465 290 l-93 -6 0 -7349 c0
-6115 2 -7349 13 -7349 8 0 103 -11 213 -25 4178 -514 8887 -514 14134 0 3220
316 6662 827 10435 1550 242 47 450 86 463 87 22 3 26 -8 81 -227 135 -530
313 -1008 552 -1487 78 -156 254 -481 275 -506 5 -6 13044 6721 13044 6729 0
5 -62 158 -139 341 -602 1443 -1375 3056 -2183 4558 -1241 2304 -2716 4675
-4437 7130 -2012 2871 -4435 5949 -7123 9047 l-287 332 200 198 c210 206 389
400 542 588 192 234 501 666 495 692 -2 10 -12370 7973 -12382 7973 -1 0 -83
-109 -183 -242z m5852 -14483 c1202 -3187 2308 -6455 3144 -9295 249 -849 482
-1678 706 -2515 137 -513 370 -1411 381 -1474 6 -32 6 -33 -22 -27 -16 3 -326
55 -689 116 -4677 779 -9052 1732 -12790 2787 -225 64 -427 120 -447 126 -21
5 -38 13 -38 18 0 17 1039 1270 1710 2064 1698 2007 3316 3817 4924 5510 692
728 955 997 1969 2009 751 750 1022 1015 1028 1005 4 -8 60 -154 124 -324z"/>
<path d="M7 17083 c-4 -3 -7 -336 -7 -740 l0 -733 1535 0 1535 0 0 -3420 0
-3420 845 0 845 0 0 3420 0 3420 1535 0 1535 0 0 740 0 740 -3908 0 c-2150 0
-3912 -3 -3915 -7z"/>
<path d="M8935 12939 c-1073 -2284 -1951 -4156 -1953 -4160 -2 -5 396 -9 885
-9 l888 0 320 698 321 697 2430 3 2431 2 333 -700 333 -700 883 0 c486 0 884
2 884 4 0 2 -904 1873 -2009 4158 l-2009 4153 -894 3 -893 2 -1950 -4151z
m3759 505 l895 -1879 -1766 -3 c-972 -1 -1768 0 -1771 3 -3 2 370 813 828
1802 459 989 851 1836 872 1882 22 46 41 81 43 79 3 -3 407 -850 899 -1884z"/>
<path d="M17707 17083 c-4 -3 -7 -1875 -7 -4160 l0 -4153 845 0 845 0 0 3256
c0 1851 4 3254 9 3252 5 -1 1170 -608 2590 -1347 l2581 -1344 0 -1908 0 -1909
845 0 845 0 0 4160 0 4160 -845 0 -845 0 0 -1355 c0 -745 -2 -1355 -5 -1355
-3 0 -1170 610 -2593 1355 l-2587 1355 -836 0 c-460 0 -839 -3 -842 -7z"/>
<path d="M29225 12939 c-1073 -2283 -1951 -4155 -1953 -4160 -2 -5 360 -9 885
-9 l888 0 320 698 320 697 2431 3 2430 2 332 -697 332 -698 885 -3 c487 -1
885 -1 885 1 0 2 -904 1873 -2009 4158 l-2010 4154 -893 3 -894 2 -1949 -4151z
m3794 431 l859 -1805 -883 -3 c-486 -1 -1283 -1 -1772 0 l-889 3 823 1775
c452 976 846 1825 874 1885 l52 110 38 -80 c21 -44 425 -892 898 -1885z"/>
<path d="M38007 17084 c-4 -4 -7 -1877 -7 -4161 l0 -4154 1823 4 c1255 3 1861
7 1947 15 531 49 865 100 1230 189 672 163 1322 457 1792 811 853 641 1332
1514 1463 2672 22 191 30 618 16 830 -82 1206 -528 2113 -1357 2758 -498 387
-1188 689 -1959 856 -370 81 -730 128 -1255 167 -176 13 -3680 25 -3693 13z
m3783 -1474 c645 -40 1174 -189 1610 -454 397 -242 702 -594 883 -1017 149
-349 217 -718 217 -1179 0 -325 -27 -558 -96 -833 -248 -987 -1003 -1637
-2125 -1832 -337 -58 -344 -58 -1511 -62 l-1078 -4 0 2695 0 2696 968 0 c535
0 1041 -5 1132 -10z"/>
<path d="M47934 12939 c-1072 -2283 -1950 -4155 -1952 -4160 -2 -5 349 -9 885
-9 l888 1 320 697 320 697 2431 3 2430 2 332 -697 331 -698 886 -3 c487 -1
885 -1 885 1 0 2 -904 1873 -2009 4158 l-2010 4154 -893 3 -894 2 -1950 -4151z
m3790 441 l864 -1815 -883 -3 c-486 -1 -1283 -1 -1772 0 l-889 3 823 1775
c452 976 845 1825 874 1885 l51 110 34 -70 c19 -38 424 -887 898 -1885z"/>
<path d="M56720 12930 l0 -4160 845 0 845 0 0 4160 0 4160 -845 0 -845 0 0
-4160z"/>
<path d="M59730 16350 l0 -740 1535 0 1535 0 0 -3420 0 -3420 840 0 840 0 0
3420 0 3420 1535 0 1535 0 0 740 0 740 -3910 0 -3910 0 0 -740z"/>
<path d="M69077 17083 c-4 -3 -7 -1875 -7 -4160 l0 -4153 845 0 845 0 0 2350
0 2350 2585 0 2585 0 0 -2350 0 -2350 845 0 845 0 0 4160 0 4160 -845 0 -845
0 0 -1085 0 -1085 -2585 0 -2585 0 0 1085 0 1085 -838 0 c-461 0 -842 -3 -845
-7z"/>
<path d="M82517 17018 c-19 -40 -896 -1909 -1950 -4154 -1055 -2245 -1917
-4084 -1917 -4088 0 -3 399 -5 887 -4 l886 3 321 698 320 697 2431 0 2430 -1
331 -697 330 -697 887 -3 887 -2 -28 57 c-16 32 -921 1904 -2012 4161 l-1984
4102 -893 0 -892 0 -34 -72z m1844 -3573 l897 -1885 -1774 0 -1773 0 12 28
c45 106 1733 3742 1737 3742 3 -1 408 -849 901 -1885z"/>
<path d="M89370 12930 l0 -4160 845 0 845 0 2 3254 3 3255 2588 -1347 2587
-1347 0 -1907 0 -1908 840 0 840 0 0 4160 0 4160 -840 0 -840 0 0 -1356 c0
-1287 -1 -1356 -17 -1349 -10 3 -1178 613 -2595 1356 l-2577 1349 -841 0 -840
0 0 -4160z"/>
<path d="M99780 12930 l0 -4160 845 0 845 0 0 2350 0 2350 2585 0 2585 0 0
-2350 0 -2350 845 0 845 0 0 4160 0 4160 -845 0 -845 0 0 -1085 0 -1085 -2585
0 -2585 0 -2 1083 -3 1082 -842 3 -843 2 0 -4160z"/>
<path d="M60970 6965 c0 -3 200 -237 445 -520 l446 -515 205 0 205 0 -13 24
c-7 13 -146 247 -308 520 l-294 496 -343 0 c-189 0 -343 -2 -343 -5z"/>
<path d="M44383 6370 c-29 -4 -65 -11 -79 -14 l-26 -7 7 -107 c3 -59 8 -124
11 -145 l6 -37 66 7 c126 15 311 9 385 -11 153 -42 216 -145 177 -288 -17 -59
-101 -143 -184 -182 -64 -31 -194 -66 -246 -66 -19 0 -20 -5 -20 -205 l0 -206
153 3 c144 3 152 4 154 23 1 11 5 73 8 137 l7 117 81 27 c212 70 346 175 397
312 62 164 18 381 -98 482 -85 75 -240 134 -417 160 -80 11 -305 11 -382 0z"/>
<path d="M60157 5651 c-180 -252 -327 -461 -327 -465 0 -3 109 -5 242 -4 l242
3 221 302 c121 166 223 304 226 307 3 3 106 -134 228 -304 l223 -310 265 0
c236 0 264 2 259 16 -3 8 -153 217 -333 465 l-327 449 -295 0 -296 0 -328
-459z"/>
<path d="M29167 5863 c-4 -3 -7 -1038 -7 -2300 l0 -2293 1525 0 1525 0 0 255
0 255 -1215 0 -1215 0 -2 2043 -3 2042 -301 3 c-165 1 -303 -1 -307 -5z"/>
<path d="M55870 3570 l0 -2300 275 0 275 0 0 999 c0 644 4 1027 11 1078 51
384 259 667 575 782 189 69 483 81 650 27 226 -73 373 -250 413 -497 7 -42 11
-467 11 -1226 l0 -1163 275 0 275 0 0 1114 c0 1110 -4 1282 -36 1456 -63 351
-218 572 -499 712 -140 70 -279 104 -481 117 -310 21 -604 -41 -839 -178 -112
-65 -258 -211 -311 -311 l-39 -75 -3 883 -2 882 -275 0 -275 0 0 -2300z"/>
<path d="M71497 5863 c-4 -3 -7 -154 -7 -335 l0 -328 275 0 275 0 0 335 0 335
-268 0 c-148 0 -272 -3 -275 -7z"/>
<path d="M76410 3570 l0 -2300 269 0 270 0 4 1023 c4 1124 2 1086 67 1282 79
239 247 431 464 530 138 63 227 80 441 80 187 0 192 -1 275 -31 201 -71 334
-214 393 -421 l22 -78 3 -1192 3 -1193 269 0 270 0 0 1183 c0 1258 -1 1278
-49 1482 -92 385 -357 633 -760 711 -119 23 -323 34 -445 23 -425 -37 -756
-217 -904 -490 -20 -38 -40 -69 -44 -69 -5 0 -8 396 -8 880 l0 880 -270 0
-270 0 0 -2300z"/>
<path d="M41570 5100 l0 -500 -285 0 -285 0 0 -240 0 -240 283 -2 282 -3 5
-1180 5 -1180 23 -79 c54 -194 133 -288 287 -346 119 -44 191 -52 553 -57
l342 -5 0 240 0 239 -237 6 c-273 6 -322 15 -372 72 -58 66 -56 26 -56 1205
l0 1085 333 3 332 2 0 240 0 240 -335 0 -335 0 0 500 0 500 -270 0 -270 0 0
-500z"/>
<path d="M33870 4673 c-499 -22 -873 -180 -1081 -455 -124 -166 -192 -350
-214 -585 l-7 -73 274 0 274 0 12 89 c21 160 85 292 176 366 97 78 273 143
450 165 125 16 392 8 501 -15 124 -25 230 -81 302 -158 33 -36 70 -85 82 -109
58 -120 66 -318 18 -414 -70 -139 -257 -217 -632 -264 -393 -49 -796 -134
-991 -209 -160 -62 -312 -169 -405 -285 -61 -76 -132 -220 -154 -309 -53 -219
-40 -485 32 -667 123 -309 403 -490 833 -541 157 -18 414 -7 566 25 301 63
501 166 706 364 l108 105 0 -59 c0 -130 59 -277 135 -339 99 -82 206 -110 385
-102 126 6 208 22 287 57 l43 19 0 212 0 211 -27 -6 c-16 -3 -64 -8 -108 -12
-89 -6 -132 8 -166 56 -35 48 -39 169 -39 1161 0 1046 0 1056 -55 1212 -35
101 -81 172 -170 263 -143 145 -328 229 -591 268 -91 14 -427 38 -464 34 -8
-1 -44 -3 -80 -5z m808 -2030 l-3 -338 -33 -81 c-78 -193 -213 -328 -433 -434
-170 -81 -379 -118 -599 -106 -218 11 -357 61 -461 165 -97 98 -137 214 -125
367 15 209 110 346 303 443 139 69 263 97 668 151 385 51 521 82 620 139 28
16 54 29 58 30 5 1 7 -151 5 -336z"/>
<path d="M37525 4669 c-394 -31 -698 -208 -903 -526 -26 -40 -50 -73 -54 -73
-5 0 -8 119 -8 265 l0 265 -255 0 -255 0 0 -1665 0 -1665 275 0 275 0 0 1013
c0 1119 0 1111 64 1299 49 145 107 238 211 344 191 193 415 272 739 262 120
-4 153 -9 221 -32 204 -70 338 -213 402 -431 16 -56 18 -150 21 -1258 l3
-1197 270 0 270 0 -3 1233 c-4 1375 0 1302 -75 1529 -114 346 -388 564 -783
621 -137 20 -290 26 -415 16z"/>
<path d="M44580 4669 c-287 -19 -545 -104 -774 -256 -131 -86 -308 -262 -395
-392 -147 -221 -241 -493 -282 -811 -16 -122 -16 -438 0 -560 85 -663 416
-1127 954 -1340 360 -142 886 -148 1257 -14 476 171 810 560 944 1099 88 354
79 792 -23 1156 -162 574 -593 980 -1158 1089 -88 17 -361 43 -398 38 -5 0
-62 -4 -125 -9z m403 -507 c331 -89 587 -344 705 -702 103 -310 103 -739 1
-1055 -94 -295 -295 -528 -554 -646 -250 -113 -569 -111 -821 6 -320 147 -529
450 -600 870 -26 149 -24 462 4 615 91 502 387 836 818 925 102 21 345 14 447
-13z"/>
<path d="M48094 4670 c-251 -17 -468 -67 -640 -149 -137 -65 -214 -119 -309
-215 -169 -170 -269 -397 -291 -664 l-7 -82 277 0 276 0 0 43 c1 136 75 313
166 396 133 121 373 191 659 191 317 0 503 -58 624 -196 83 -94 114 -188 115
-344 1 -96 -1 -110 -27 -162 -72 -146 -245 -216 -676 -273 -334 -44 -657 -109
-856 -172 -277 -88 -465 -231 -583 -443 -124 -224 -135 -637 -23 -884 64 -141
185 -276 319 -356 259 -153 708 -203 1095 -120 274 59 493 176 684 365 l92 91
6 -66 c25 -243 118 -363 325 -416 126 -32 392 -5 501 52 l29 15 0 210 0 211
-32 -6 c-183 -32 -261 -10 -293 84 -5 14 -11 504 -15 1090 l-6 1065 -26 97
c-89 326 -337 531 -729 602 -182 33 -461 48 -655 36z m866 -1993 c0 -270 -2
-312 -20 -381 -75 -293 -349 -520 -716 -592 -122 -25 -408 -25 -514 -1 -173
39 -301 131 -367 264 -32 65 -37 84 -41 171 -10 216 59 364 221 474 148 101
278 135 752 198 375 51 534 87 630 144 22 13 43 25 48 25 4 1 7 -136 7 -302z"/>
<path d="M53590 4669 c-206 -15 -402 -68 -575 -157 -73 -38 -108 -64 -185
-142 -58 -57 -109 -120 -130 -157 -19 -34 -38 -63 -42 -63 -5 0 -8 101 -8 225
l0 225 -275 0 -275 0 0 -2300 0 -2300 275 0 275 0 0 855 c0 470 3 855 8 855 4
0 23 -24 42 -52 81 -119 243 -249 401 -322 299 -137 687 -173 1034 -94 378 85
702 333 895 684 91 163 170 417 206 659 22 148 25 493 6 635 -45 323 -148 610
-305 845 -123 184 -345 376 -544 471 -225 106 -515 155 -803 133z m260 -493
c192 -34 332 -108 476 -251 179 -177 277 -379 328 -675 47 -272 21 -640 -64
-900 -92 -280 -273 -496 -504 -600 -232 -105 -615 -98 -853 14 -294 140 -486
406 -562 781 -79 390 -37 815 109 1106 120 242 316 421 538 494 135 44 380 58
532 31z"/>
<path d="M60648 4670 c-395 -29 -737 -179 -992 -436 -116 -116 -203 -238 -277
-389 -297 -606 -256 -1472 95 -1993 173 -257 423 -451 716 -556 341 -123 823
-129 1174 -15 479 157 819 525 971 1054 57 197 70 307 69 595 0 284 -8 357
-60 565 -163 643 -631 1072 -1264 1159 -139 20 -301 25 -432 16z m407 -510
c382 -104 647 -414 747 -873 20 -91 22 -131 22 -357 0 -226 -2 -266 -22 -357
-89 -407 -299 -685 -620 -822 -299 -127 -673 -90 -942 92 -66 45 -196 173
-245 242 -96 135 -176 335 -211 530 -14 76 -18 151 -18 315 0 240 13 344 66
510 34 106 101 246 159 331 142 210 380 363 636 409 88 16 339 4 428 -20z"/>
<path d="M64445 4669 c-394 -31 -716 -220 -908 -531 -23 -37 -45 -68 -49 -68
-5 0 -8 119 -8 265 l0 265 -255 0 -255 0 0 -1665 0 -1665 269 0 270 0 4 1023
c4 1115 3 1087 63 1272 101 309 319 516 629 596 79 21 113 24 280 24 187 0
192 -1 275 -31 201 -71 334 -214 393 -421 l22 -78 3 -1192 3 -1193 269 0 270
0 0 1183 c0 1257 -1 1278 -49 1482 -68 286 -229 494 -479 619 -181 91 -479
137 -747 115z"/>
<path d="M74330 4669 c-383 -30 -700 -216 -897 -526 -26 -40 -50 -73 -55 -73
-4 0 -8 119 -8 265 l0 265 -255 0 -255 0 0 -1665 0 -1665 275 0 274 0 4 1053
c3 1040 3 1053 25 1140 81 330 278 564 561 667 186 68 481 80 647 26 197 -64
337 -214 401 -431 16 -56 18 -149 21 -1258 l3 -1197 275 0 275 0 -4 1193 c-4
1284 -4 1268 -58 1486 -99 394 -383 642 -809 704 -138 21 -290 26 -420 16z"/>
<path d="M67971 4548 c11 -29 289 -777 618 -1663 l597 -1610 295 -2 294 -3
605 1656 c333 911 607 1660 608 1665 2 6 -109 8 -283 7 l-287 -3 -452 -1383
c-249 -760 -456 -1385 -459 -1389 -9 -8 32 -126 -482 1402 l-462 1370 -306 3
-306 2 20 -52z"/>
<path d="M71490 2935 l0 -1665 275 0 275 0 0 1665 0 1665 -275 0 -275 0 0
-1665z"/>
</g>
</svg>
